<?xml version="1.0" encoding="UTF-8"?>
<svg viewBox="0 0 845 180" xmlns="http://www.w3.org/2000/svg">
<path d="m110.45 111.93c0-24.452-17.868-42.56-42.317-42.56-24.453 0-42.491 18.28-42.491 42.56 0 24.041 18.037 42.49 42.491 42.49 24.449 0 42.317-18.11 42.317-42.49zm27.215 2e-3c0 38.88-28.141 68.018-67.436 68.018-18.203 0-34.129-6.67-45.793-17.883l-3.432 14.723h-20.168v-176.22h26.664v58.409c11.321-9.516 26.073-15.069 42.729-15.069 39.295 0 67.436 28.967 67.436 68.02z" fill="#fff"/>
<path d="m233.88 46.351v25.187h-14.076c-22.055 0-33.06 12.576-33.06 36.076v69.174h-26.664v-129.72h18.035l4.512 17.705c9.282-12.303 22.009-18.425 39.724-18.425h11.529z" fill="#fff"/>
<path d="m302.22 67.988c-20.057 0-34.668 12.097-39.038 31.339h78.436c-4.784-19.701-19.636-31.336-39.398-31.336v-0.0027zm66.131 44.244c0 2.922-0.241 5.839-0.551 8.759h-105.28c3.332 21.023 18.467 33.945 39.704 33.945 15.499 0 28.048-7.164 34.906-18.993h28.07c-10.322 27.387-34.006 44.003-62.973 44.003-37.921 0-66.645-29.272-66.645-68.018 0-38.813 28.654-68.018 66.645-68.018 39.704 0 66.133 30.577 66.133 68.322h-5e-3z" fill="#fff"/>
<path d="m447.78 67.988c-20.057 0-34.668 12.097-39.038 31.339h78.436c-4.784-19.701-19.636-31.336-39.398-31.336v-0.0027zm66.131 44.244c0 2.922-0.241 5.839-0.551 8.759h-105.28c3.332 21.023 18.467 33.945 39.704 33.945 15.499 0 28.048-7.164 34.906-18.993h28.07c-10.322 27.387-34.006 44.003-62.973 44.003-37.921 0-66.647-29.272-66.647-68.018 0-38.813 28.656-68.018 66.647-68.018 39.704 0 66.133 30.577 66.133 68.322h-5e-3z" fill="#fff"/>
<path d="m593.34 67.988c-20.058 0-34.668 12.097-39.039 31.339h78.436c-4.784-19.701-19.636-31.336-39.397-31.336v-0.0027zm66.13 44.244c0 2.922-0.241 5.839-0.55 8.759h-105.28c3.332 21.023 18.466 33.945 39.704 33.945 15.498 0 28.048-7.164 34.905-18.993h28.071c-10.323 27.387-34.007 44.003-62.974 44.003-37.921 0-66.646-29.272-66.646-68.018 0-38.813 28.656-68.018 66.646-68.018 39.704 0 66.134 30.577 66.134 68.322h-6e-3z" fill="#fff"/>
<path d="m819.83 167.58c-6.825 0-12.369-5.535-12.369-12.368s5.544-12.368 12.369-12.368c6.826 0 12.367 5.535 12.367 12.368s-5.541 12.368-12.367 12.368zm0-37.105c-13.65 0-24.738 11.07-24.738 24.737s11.088 24.737 24.738 24.737c13.651 0 24.736-11.07 24.736-24.737s-11.085-24.737-24.736-24.737z" fill="#FF6B4A"/>
<path d="m770.35 152.05v24.738h-104.06v-3.399l62.847-101.89h-58.006v-24.429h99.048v4.0187l-62.294 100.96h62.466z" fill="#fff"/>
</svg>
