<svg xmlns="http://www.w3.org/2000/svg" style="display: none;">
  
    <symbol id="icon-linkedin" viewBox="0 0 512 512">
      <path d="M416 32H31.9C14.3 32 0 46.5 0 64.3v383.4C0 465.5 14.3 480 31.9 480H416c17.6 0 32-14.5 32-32.3V64.3c0-17.8-14.4-32.3-32-32.3zM135.4 416H69V202.2h66.5V416zm-33.2-243c-21.3 0-38.5-17.3-38.5-38.5S80.9 96 102.2 96c21.2 0 38.5 17.3 38.5 38.5 0 21.3-17.2 38.5-38.5 38.5zm282.1 243h-66.4V312c0-24.8-.5-56.7-34.5-56.7-34.6 0-39.9 27-39.9 54.9V416h-66.4V202.2h63.7v29.2h.9c8.9-16.8 30.6-34.5 62.9-34.5 67.2 0 79.7 44.3 79.7 101.9V416z"></path>
    </symbol>
  
    <symbol id="icon-facebook" viewBox="0 0 512 512">
      <path d="m480 57l0 398c0 14-11 25-25 25l-114 0 0-173 58 0 9-68-67 0 0-43c0-20 5-33 34-33l35 0 0-61c-6 0-27-2-52-2-51 0-87 31-87 89l0 50-58 0 0 68 58 0 0 173-214 0c-14 0-25-11-25-25l0-398c0-14 11-25 25-25l398 0c14 0 25 11 25 25z"/>
    </symbol>

    <symbol id="icon-external" viewBox="0 0 32 32">
      <path d=" M4 4 L12 4 L12 8 L8 8 L8 24 L24 24 L24 20 L28 20 L28 28 L4 28 z M16 4 L28 4 L28 16 L24 12 L16 20 L12 16 L20 8z "/>
    </symbol>

    <symbol viewBox="0 0 504 504" id="icon-pinterest">
      <path d="M377.6 0H126C56.8 0 0 56.8 0 126.4V378c0 69.2 56.8 126 126 126h251.6c69.6 0 126.4-56.8 126.4-126.4V126.4C504 56.8 447.2 0 377.6 0zM277.2 322c-20 0-39.2-10.4-45.6-22.4 0 0-10.8 41.6-13.2 49.6-8 28.4-32 56.8-33.6 59.2-1.2 1.6-4 1.2-4.4-1.2-.4-3.6-6.4-39.6.4-68.8 3.6-14.8 24-98.4 24-98.4s-6-11.6-6-28.4c0-26.8 16-46.8 36-46.8 16.8 0 25.2 12.4 25.2 27.2 0 16.4-10.8 41.2-16.4 64-4.8 19.2 10 34.8 29.6 34.8 35.2 0 59.2-44 59.2-96 0-39.6-27.6-69.2-77.6-69.2-56.4 0-92 40.8-92 86.4 0 15.6 4.8 26.8 12.4 35.6 3.6 4 4 5.6 2.8 10-.8 3.2-2.8 11.2-4 14.4-1.2 4.4-5.2 6.4-9.2 4.4-26-10.4-38-38-38-69.2 0-51.2 44.8-112.8 133.2-112.8 71.2 0 118 50 118 103.6-.4 71.2-40.8 124-100.8 124z"></path>
    </symbol>
  
    <symbol id="icon-google-plus" viewBox="0 0 512 512">
      <path d="m256 8c-137 0-248 111-248 248 0 137 111 248 248 248 137 0 248-111 248-248 0-137-111-248-248-248z m-71 372c-68 0-124-55-124-124 0-68 56-124 124-124 32 0 60 11 83 32l-33 33c-13-13-32-19-50-19-43 0-77 35-77 78 0 43 34 78 77 78 33 0 65-19 70-53l-70 0 0-43 117 0c2 7 2 14 2 21 0 71-47 121-119 121z m231-106l0 35-36 0 0-35-35 0 0-36 35 0 0-35 36 0 0 35 35 0 0 36z"/>
    </symbol>
  
    <symbol id="icon-youtube" viewBox="0 0 512 512">
      <path d="m489 139c-6-21-22-38-43-43-38-11-190-11-190-11 0 0-152 0-190 11-21 5-37 22-43 43-10 38-10 117-10 117 0 0 0 80 10 118 6 21 22 37 43 42 38 11 190 11 190 11 0 0 152 0 190-11 21-5 37-21 43-42 10-38 10-118 10-118 0 0 0-79-10-117z m-283 190l0-145 127 72z"/>
    </symbol>
  
    <symbol id="icon-twitter-square" viewBox="0 0 512 512">
      <path d="m432 32l-352 0c-26 0-48 22-48 48l0 352c0 27 22 48 48 48l352 0c27 0 48-21 48-48l0-352c0-26-21-48-48-48z m-49 159c0 3 2 6 2 8 0 87-66 187-186 187-38 0-72-11-101-29 5 6 10 8 16 8 30 0 59-11 81-28-29-1-53-20-61-46 10 2 19 2 29-1-30-6-52-33-52-65l0 0c9 5 19 8 29 8-18-12-29-33-29-55 0-12 3-23 9-33 32 40 81 66 135 69-9-45 24-81 64-81 19 0 36 8 48 21 15-3 29-8 42-16-5 15-15 28-29 36 13-1 26-5 38-10-9 13-20 25-33 34z"/>
    </symbol>

    <symbol id="icon-bars" viewBox="0 0 448 512">
      <path d="M16 132h416c8.837 0 16-7.163 16-16V76c0-8.837-7.163-16-16-16H16C7.163 60 0 67.163 0 76v40c0 8.837 7.163 16 16 16zm0 160h416c8.837 0 16-7.163 16-16v-40c0-8.837-7.163-16-16-16H16c-8.837 0-16 7.163-16 16v40c0 8.837 7.163 16 16 16zm0 160h416c8.837 0 16-7.163 16-16v-40c0-8.837-7.163-16-16-16H16c-8.837 0-16 7.163-16 16v40c0 8.837 7.163 16 16 16z"/>
    </symbol>
  
    <symbol id="icon-ellipsis-h" viewBox="0 0 512 512">
      <path d="m304 256c0 27-21 48-48 48-26 0-48-21-48-48 0-26 22-48 48-48 27 0 48 22 48 48z m120-48c-26 0-48 22-48 48 0 27 22 48 48 48 27 0 48-21 48-48 0-26-21-48-48-48z m-336 0c-26 0-48 22-48 48 0 27 22 48 48 48 27 0 48-21 48-48 0-26-21-48-48-48z"/>
    </symbol>
  
    <symbol id="icon-angle-down" viewBox="0 0 512 512">
      <path d="m248 348l-148-147c-5-5-5-12 0-17l19-20c5-4 13-4 17 0l120 119 120-119c4-4 12-4 17 0l20 20c4 5 4 12 0 17l-148 147c-5 5-13 5-17 0z"/>
    </symbol>
  
    <symbol id="icon-angle-left" viewBox="0 0 512 512">
      <path d="m164 248l147-148c5-5 12-5 17 0l20 19c5 5 5 13 0 17l-119 120 119 120c5 4 5 12 0 17l-20 20c-5 4-12 4-17 0l-147-148c-4-5-4-13 0-17z"/>
    </symbol>
  
    <symbol id="icon-angle-up" viewBox="0 0 512 512">
      <path d="m265 164l148 147c4 5 4 12 0 17l-20 20c-5 5-13 5-17 0l-120-119-120 119c-4 5-12 5-17 0l-19-20c-5-5-5-12 0-17l148-147c4-4 12-4 17 0z"/>
    </symbol>
  
    <symbol id="icon-angle-right" viewBox="0 0 512 512">
      <path d="m348 265l-147 148c-5 4-12 4-17 0l-20-20c-4-5-4-13 0-17l119-120-119-120c-4-4-4-12 0-17l20-19c5-5 12-5 17 0l147 148c5 4 5 12 0 17z"/>
    </symbol>
  
    <symbol id="icon-caret-down" viewBox="0 0 512 512">
      <path d="m127 192l258 0c17 0 26 22 14 34l-129 129c-8 8-20 8-28 0l-129-129c-12-12-3-34 14-34z"/>
    </symbol>
  
    <symbol id="icon-caret-left" viewBox="0 0 512 512">
      <path d="m352 127l0 258c0 17-22 26-34 14l-129-129c-8-8-8-20 0-28l129-129c12-12 34-3 34 14z"/>
    </symbol>
  
    <symbol id="icon-caret-right" viewBox="0 0 512 512">
      <path d="m160 385l0-258c0-17 22-26 34-14l129 129c8 8 8 20 0 28l-129 129c-12 12-34 3-34-14z"/>
    </symbol>
  
    <symbol id="icon-caret-up" viewBox="0 0 512 512">
      <path d="m385 352l-258 0c-17 0-26-22-14-34l129-129c8-8 20-8 28 0l129 129c12 12 3 34-14 34z"/>
    </symbol>
  
    <symbol id="icon-check-light" viewBox="0 0 512 512">
      <path d="m446 92l-281 280-99-99c-4-5-12-5-16 0l-12 11c-4 5-4 13 0 17l119 119c5 5 12 5 17 0l300-300c4-4 4-12 0-17l-12-11c-4-5-12-5-16 0z"/>
    </symbol>
  
    <symbol id="icon-check-solid" viewBox="0 0 512 512">
      <path d="m174 439l-167-166c-10-10-10-26 0-36l37-36c10-10 26-10 36 0l112 112 240-240c10-10 26-10 36 0l37 36c10 10 10 26 0 36l-295 294c-10 10-26 10-36 0z"/>
    </symbol>

    <symbol id="icon-check" viewBox="0 0 512 512">
      <path d="m174 439l-167-166c-10-10-10-26 0-36l37-36c10-10 26-10 36 0l112 112 240-240c10-10 26-10 36 0l37 36c10 10 10 26 0 36l-295 294c-10 10-26 10-36 0z"/>
    </symbol>
  
    <symbol id="icon-check-regular" viewBox="0 0 512 512">
      <path d="m436 83l-263 264-97-97c-5-5-12-5-17 0l-28 28c-5 5-5 12 0 17l133 134c5 4 13 4 17 0l300-300c5-5 5-13 0-17l-28-29c-5-4-12-4-17 0z"/>
    </symbol>

    <symbol id="icon-check-circle" viewBox="0 0 512 512">
        <path d="M256 8C119.033 8 8 119.033 8 256s111.033 248 248 248 248-111.033 248-248S392.967 8 256 8zm0 48c110.532 0 200 89.451 200 200 0 110.532-89.451 200-200 200-110.532 0-200-89.451-200-200 0-110.532 89.451-200 200-200m140.204 130.267l-22.536-22.718c-4.667-4.705-12.265-4.736-16.97-.068L215.346 303.697l-59.792-60.277c-4.667-4.705-12.265-4.736-16.97-.069l-22.719 22.536c-4.705 4.667-4.736 12.265-.068 16.971l90.781 91.516c4.667 4.705 12.265 4.736 16.97.068l172.589-171.204c4.704-4.668 4.734-12.266.067-16.971z"></path>
    </symbol>
  
    <symbol id="icon-plus" viewBox="0 0 512 512">
      <path d="m432 224l-144 0 0-144c0-9-7-16-16-16l-32 0c-9 0-16 7-16 16l0 144-144 0c-9 0-16 7-16 16l0 32c0 9 7 16 16 16l144 0 0 144c0 9 7 16 16 16l32 0c9 0 16-7 16-16l0-144 144 0c9 0 16-7 16-16l0-32c0-9-7-16-16-16z"/>
    </symbol>

    <symbol id="icon-pound" viewBox="0 0 320 512">
      <path d="M308 352h-45.495c-6.627 0-12 5.373-12 12v50.848H128V288h84c6.627 0 12-5.373 12-12v-40c0-6.627-5.373-12-12-12h-84v-63.556c0-32.266 24.562-57.086 61.792-57.086 23.658 0 45.878 11.505 57.652 18.849 5.151 3.213 11.888 2.051 15.688-2.685l28.493-35.513c4.233-5.276 3.279-13.005-2.119-17.081C273.124 54.56 236.576 32 187.931 32 106.026 32 48 84.742 48 157.961V224H20c-6.627 0-12 5.373-12 12v40c0 6.627 5.373 12 12 12h28v128H12c-6.627 0-12 5.373-12 12v40c0 6.627 5.373 12 12 12h296c6.627 0 12-5.373 12-12V364c0-6.627-5.373-12-12-12z"></path>
    </symbol>
  
    <symbol id="icon-info-circle" viewBox="0 0 512 512">
      <path d="m256 8c-137 0-248 111-248 248 0 137 111 248 248 248 137 0 248-111 248-248 0-137-111-248-248-248z m0 448c-111 0-200-89-200-200 0-110 89-200 200-200 110 0 200 89 200 200 0 111-89 200-200 200z m0-338c23 0 42 19 42 42 0 23-19 42-42 42-23 0-42-19-42-42 0-23 19-42 42-42z m56 254c0 7-5 12-12 12l-88 0c-7 0-12-5-12-12l0-24c0-7 5-12 12-12l12 0 0-64-12 0c-7 0-12-5-12-12l0-24c0-7 5-12 12-12l64 0c7 0 12 5 12 12l0 100 12 0c7 0 12 5 12 12z"/>
    </symbol>
  
    <symbol id="icon-info-circle-1" viewBox="0 0 512 512">
      <path d="m256 8c-137 0-248 111-248 248 0 137 111 248 248 248 137 0 248-111 248-248 0-137-111-248-248-248z m0 110c23 0 42 19 42 42 0 23-19 42-42 42-23 0-42-19-42-42 0-23 19-42 42-42z m56 254c0 7-5 12-12 12l-88 0c-7 0-12-5-12-12l0-24c0-7 5-12 12-12l12 0 0-64-12 0c-7 0-12-5-12-12l0-24c0-7 5-12 12-12l64 0c7 0 12 5 12 12l0 100 12 0c7 0 12 5 12 12z"/>
    </symbol>
  
    <symbol id="icon-question-circle" viewBox="0 0 512 512">
      <path d="m504 256c0 137-111 248-248 248-137 0-248-111-248-248 0-137 111-248 248-248 137 0 248 111 248 248z m-241-166c-55 0-90 23-117 64-3 5-2 12 3 16l35 26c5 4 12 3 16-2 18-22 30-36 57-36 21 0 46 14 46 33 0 15-12 23-32 34-24 14-55 30-55 71l0 4c0 7 5 12 12 12l56 0c7 0 12-5 12-12l0-1c0-29 83-30 83-107 0-58-60-102-116-102z m-7 248c-25 0-46 21-46 46 0 25 21 46 46 46 25 0 46-21 46-46 0-25-21-46-46-46z"/>
    </symbol>
  
    <symbol id="icon-question-circle-1" viewBox="0 0 512 512">
      <path d="m256 8c-137 0-248 111-248 248 0 137 111 248 248 248 137 0 248-111 248-248 0-137-111-248-248-248z m0 448c-111 0-200-89-200-200 0-110 89-200 200-200 110 0 200 89 200 200 0 111-89 200-200 200z m107-255c0 67-72 68-72 93l0 6c0 7-6 12-12 12l-46 0c-6 0-12-5-12-12l0-9c0-35 27-50 48-61 17-10 28-17 28-30 0-17-22-28-40-28-23 0-34 11-49 30-4 5-11 6-16 2l-28-21c-5-4-6-12-3-17 24-35 54-54 101-54 49 0 101 38 101 89z m-65 167c0 23-19 42-42 42-23 0-42-19-42-42 0-23 19-42 42-42 23 0 42 19 42 42z"/>
    </symbol>
  
    <symbol id="icon-map-marker-alt" viewBox="0 0 512 512">
      <path d="m236 502c-145-211-172-233-172-310 0-106 86-192 192-192 106 0 192 86 192 192 0 77-27 99-172 310-10 13-30 13-40 0z m20-230c44 0 80-36 80-80 0-44-36-80-80-80-44 0-80 36-80 80 0 44 36 80 80 80z"/>
    </symbol>
  
    <symbol id="icon-envelope" viewBox="0 0 512 512">
      <path d="m502 191c4-3 10 0 10 5l0 204c0 27-21 48-48 48l-416 0c-26 0-48-21-48-48l0-204c0-5 6-8 10-5 22 17 52 39 154 114 21 15 57 47 92 47 36 3 72-33 92-47 102-75 132-97 154-114z m-246 129c23 4 57-29 73-41 133-97 143-105 174-129 6-5 9-12 9-19l0-19c0-26-21-48-48-48l-416 0c-26 0-48 22-48 48l0 19c0 7 3 14 9 19 31 24 41 32 174 129 16 12 50 41 73 41z"/>
    </symbol>
  
    <symbol id="icon-search" viewBox="0 0 512 512">
      <path d="m509 469l-122-121c-2-3-5-4-8-4l-14 0c32-36 51-84 51-136 0-115-93-208-208-208-115 0-208 93-208 208 0 115 93 208 208 208 52 0 100-19 136-51l0 14c0 3 1 6 4 8l121 122c5 4 12 4 17 0l23-23c4-5 4-12 0-17z m-301-101c-88 0-160-72-160-160 0-88 72-160 160-160 88 0 160 72 160 160 0 88-72 160-160 160z"/>
    </symbol>
  
    <symbol id="icon-times" viewBox="0 0 512 512">
      <path d="m323 256l100-100c12-12 12-32 0-45l-22-22c-13-12-33-12-45 0l-100 100-100-100c-12-12-32-12-45 0l-22 22c-12 13-12 33 0 45l100 100-100 100c-12 12-12 32 0 45l22 22c13 12 33 12 45 0l100-100 100 100c12 12 32 12 45 0l22-22c12-13 12-33 0-45z"/>
    </symbol>

    <symbol id="icon-file-pdf" viewBox="0 0 512 512">
      <path d="M369.9 97.9L286 14C277 5 264.8-.1 252.1-.1H48C21.5 0 0 21.5 0 48v416c0 26.5 21.5 48 48 48h288c26.5 0 48-21.5 48-48V131.9c0-12.7-5.1-25-14.1-34zm-22.6 22.7c2.1 2.1 3.5 4.6 4.2 7.4H256V32.5c2.8.7 5.3 2.1 7.4 4.2l83.9 83.9zM336 480H48c-8.8 0-16-7.2-16-16V48c0-8.8 7.2-16 16-16h176v104c0 13.3 10.7 24 24 24h104v304c0 8.8-7.2 16-16 16zm-22-171.2c-13.5-13.3-55-9.2-73.7-6.7-21.2-12.8-35.2-30.4-45.1-56.6 4.3-18 12-47.2 6.4-64.9-4.4-28.1-39.7-24.7-44.6-6.8-5 18.3-.3 44.4 8.4 77.8-11.9 28.4-29.7 66.9-42.1 88.6-20.8 10.7-54.1 29.3-58.8 52.4-3.5 16.8 22.9 39.4 53.1 6.4 9.1-9.9 19.3-24.8 31.3-45.5 26.7-8.8 56.1-19.8 82-24 21.9 12 47.6 19.9 64.6 19.9 27.7.1 28.9-30.2 18.5-40.6zm-229.2 89c5.9-15.9 28.6-34.4 35.5-40.8-22.1 35.3-35.5 41.5-35.5 40.8zM180 175.5c8.7 0 7.8 37.5 2.1 47.6-5.2-16.3-5-47.6-2.1-47.6zm-28.4 159.3c11.3-19.8 21-43.2 28.8-63.7 9.7 17.7 22.1 31.7 35.1 41.5-24.3 4.7-45.4 15.1-63.9 22.2zm153.4-5.9s-5.8 7-43.5-9.1c41-3 47.7 6.4 43.5 9.1z"></path>
    </symbol>

    <symbol id="icon-file" viewBox="0 0 384 512">
      <path d="M369.9 97.9L286 14C277 5 264.8-.1 252.1-.1H48C21.5 0 0 21.5 0 48v416c0 26.5 21.5 48 48 48h288c26.5 0 48-21.5 48-48V131.9c0-12.7-5.1-25-14.1-34zm-22.6 22.7c2.1 2.1 3.5 4.6 4.2 7.4H256V32.5c2.8.7 5.3 2.1 7.4 4.2l83.9 83.9zM336 480H48c-8.8 0-16-7.2-16-16V48c0-8.8 7.2-16 16-16h176v104c0 13.3 10.7 24 24 24h104v304c0 8.8-7.2 16-16 16z"></path>
    </symbol>

    <symbol id="icon-quote-right" viewBox="0 0 512 512">
      <path d="M176 32H64C28.7 32 0 60.7 0 96v128c0 35.3 28.7 64 64 64h64v24c0 30.9-25.1 56-56 56H56c-22.1 0-40 17.9-40 40v32c0 22.1 17.9 40 40 40h16c92.6 0 168-75.4 168-168V96c0-35.3-28.7-64-64-64zm32 280c0 75.1-60.9 136-136 136H56c-4.4 0-8-3.6-8-8v-32c0-4.4 3.6-8 8-8h16c48.6 0 88-39.4 88-88v-56H64c-17.7 0-32-14.3-32-32V96c0-17.7 14.3-32 32-32h112c17.7 0 32 14.3 32 32v216zM448 32H336c-35.3 0-64 28.7-64 64v128c0 35.3 28.7 64 64 64h64v24c0 30.9-25.1 56-56 56h-16c-22.1 0-40 17.9-40 40v32c0 22.1 17.9 40 40 40h16c92.6 0 168-75.4 168-168V96c0-35.3-28.7-64-64-64zm32 280c0 75.1-60.9 136-136 136h-16c-4.4 0-8-3.6-8-8v-32c0-4.4 3.6-8 8-8h16c48.6 0 88-39.4 88-88v-56h-96c-17.7 0-32-14.3-32-32V96c0-17.7 14.3-32 32-32h112c17.7 0 32 14.3 32 32v216z"></path>
    </symbol>

    <symbol id="icon-quote-left" viewBox="0 0 512 512">
      <path d="M448 224h-64v-24c0-30.9 25.1-56 56-56h16c22.1 0 40-17.9 40-40V72c0-22.1-17.9-40-40-40h-16c-92.6 0-168 75.4-168 168v216c0 35.3 28.7 64 64 64h112c35.3 0 64-28.7 64-64V288c0-35.3-28.7-64-64-64zm32 192c0 17.7-14.3 32-32 32H336c-17.7 0-32-14.3-32-32V200c0-75.1 60.9-136 136-136h16c4.4 0 8 3.6 8 8v32c0 4.4-3.6 8-8 8h-16c-48.6 0-88 39.4-88 88v56h96c17.7 0 32 14.3 32 32v128zM176 224h-64v-24c0-30.9 25.1-56 56-56h16c22.1 0 40-17.9 40-40V72c0-22.1-17.9-40-40-40h-16C75.4 32 0 107.4 0 200v216c0 35.3 28.7 64 64 64h112c35.3 0 64-28.7 64-64V288c0-35.3-28.7-64-64-64zm32 192c0 17.7-14.3 32-32 32H64c-17.7 0-32-14.3-32-32V200c0-75.1 60.9-136 136-136h16c4.4 0 8 3.6 8 8v32c0 4.4-3.6 8-8 8h-16c-48.6 0-88 39.4-88 88v56h96c17.7 0 32 14.3 32 32v128z"></path>
    </symbol>

    <symbol id="icon-twitter" viewBox="0 0 512 512">
      <path d="M459.37 151.716c.325 4.548.325 9.097.325 13.645 0 138.72-105.583 298.558-298.558 298.558-59.452 0-114.68-17.219-161.137-47.106 8.447.974 16.568 1.299 25.34 1.299 49.055 0 94.213-16.568 130.274-44.832-46.132-.975-84.792-31.188-98.112-72.772 6.498.974 12.995 1.624 19.818 1.624 9.421 0 18.843-1.3 27.614-3.573-48.081-9.747-84.143-51.98-84.143-102.985v-1.299c13.969 7.797 30.214 12.67 47.431 13.319-28.264-18.843-46.781-51.005-46.781-87.391 0-19.492 5.197-37.36 14.294-52.954 51.655 63.675 129.3 105.258 216.365 109.807-1.624-7.797-2.599-15.918-2.599-24.04 0-57.828 46.782-104.934 104.934-104.934 30.213 0 57.502 12.67 76.67 33.137 23.715-4.548 46.456-13.32 66.599-25.34-7.798 24.366-24.366 44.833-46.132 57.827 21.117-2.273 41.584-8.122 60.426-16.243-14.292 20.791-32.161 39.308-52.628 54.253z"></path>
    </symbol>

    <symbol id="icon-instagram" viewBox="0 0 448 512">
      <path d="M224.1 141c-63.6 0-114.9 51.3-114.9 114.9s51.3 114.9 114.9 114.9S339 319.5 339 255.9 287.7 141 224.1 141zm0 189.6c-41.1 0-74.7-33.5-74.7-74.7s33.5-74.7 74.7-74.7 74.7 33.5 74.7 74.7-33.6 74.7-74.7 74.7zm146.4-194.3c0 14.9-12 26.8-26.8 26.8-14.9 0-26.8-12-26.8-26.8s12-26.8 26.8-26.8 26.8 12 26.8 26.8zm76.1 27.2c-1.7-35.9-9.9-67.7-36.2-93.9-26.2-26.2-58-34.4-93.9-36.2-37-2.1-147.9-2.1-184.9 0-35.8 1.7-67.6 9.9-93.9 36.1s-34.4 58-36.2 93.9c-2.1 37-2.1 147.9 0 184.9 1.7 35.9 9.9 67.7 36.2 93.9s58 34.4 93.9 36.2c37 2.1 147.9 2.1 184.9 0 35.9-1.7 67.7-9.9 93.9-36.2 26.2-26.2 34.4-58 36.2-93.9 2.1-37 2.1-147.8 0-184.8zM398.8 388c-7.8 19.6-22.9 34.7-42.6 42.6-29.5 11.7-99.5 9-132.1 9s-102.7 2.6-132.1-9c-19.6-7.8-34.7-22.9-42.6-42.6-11.7-29.5-9-99.5-9-132.1s-2.6-102.7 9-132.1c7.8-19.6 22.9-34.7 42.6-42.6 29.5-11.7 99.5-9 132.1-9s102.7-2.6 132.1 9c19.6 7.8 34.7 22.9 42.6 42.6 11.7 29.5 9 99.5 9 132.1s2.7 102.7-9 132.1z"></path>
    </symbol>

    <symbol id="icon-container" viewBox="0 0 640 512">
      <path d="M632 64c4.4 0 8-3.6 8-8V40c0-4.4-3.6-8-8-8H8c-4.4 0-8 3.6-8 8v16c0 4.4 3.6 8 8 8h8v384H8c-4.4 0-8 3.6-8 8v16c0 4.4 3.6 8 8 8h624c4.4 0 8-3.6 8-8v-16c0-4.4-3.6-8-8-8h-8V64h8zm-40 384H48V64h544v384zm-472-64h16c4.4 0 8-3.6 8-8V136c0-4.4-3.6-8-8-8h-16c-4.4 0-8 3.6-8 8v240c0 4.4 3.6 8 8 8zm96 0h16c4.4 0 8-3.6 8-8V136c0-4.4-3.6-8-8-8h-16c-4.4 0-8 3.6-8 8v240c0 4.4 3.6 8 8 8zm96 0h16c4.4 0 8-3.6 8-8V136c0-4.4-3.6-8-8-8h-16c-4.4 0-8 3.6-8 8v240c0 4.4 3.6 8 8 8zm96 0h16c4.4 0 8-3.6 8-8V136c0-4.4-3.6-8-8-8h-16c-4.4 0-8 3.6-8 8v240c0 4.4 3.6 8 8 8zm96 0h16c4.4 0 8-3.6 8-8V136c0-4.4-3.6-8-8-8h-16c-4.4 0-8 3.6-8 8v240c0 4.4 3.6 8 8 8z"></path>
    </symbol>

    <symbol id="icon-truck" viewBox="0 0 640 512">
      <path d="M32 320h336c17.7 0 32-14.3 32-32V64c0-17.7-14.3-32-32-32H32C14.3 32 0 46.3 0 64v224c0 17.7 14.3 32 32 32zm0-256h336v224H32V64zm589.3 141.3l-58.5-58.5c-12-12-28.3-18.7-45.3-18.7H448c-8.8 0-16 7.2-16 16v208H228.7c-12.3-9.9-27.7-16-44.7-16-22.8 0-42.8 10.8-56 27.3-13.2-16.6-33.2-27.4-56-27.4-39.8 0-72 32.2-72 72s32.2 72 72 72c22.8 0 42.8-10.8 56-27.3 13.2 16.5 33.2 27.3 56 27.3 39.8 0 72-32.2 72-72 0-8.5-1.7-16.5-4.4-24h198c-2.7 13.2-2.2 27.6 2.8 42.4 8.4 25.1 29.9 44.9 55.6 51.1 52.8 12.8 100-26.9 100-77.6 0-5.5-.6-10.8-1.6-16H624c8.8 0 16-7.2 16-16V250.5c0-17-6.7-33.2-18.7-45.2zM72 448c-22.1 0-40-17.9-40-40s17.9-40 40-40 40 17.9 40 40-17.9 40-40 40zm112 0c-22.1 0-40-17.9-40-40s17.9-40 40-40 40 17.9 40 40-17.9 40-40 40zm280-288h53.5c8.5 0 16.6 3.3 22.6 9.4l54.6 54.6H464v-64zm64 288c-26.5 0-48-21.5-48-48s21.5-48 48-48 48 21.5 48 48-21.5 48-48 48zm80-96h-16.4c-14.6-19.3-37.5-32-63.6-32s-49 12.7-63.6 32h-.4v-96h144v96zm-504-96h16c4.4 0 8-3.6 8-8V104c0-4.4-3.6-8-8-8h-16c-4.4 0-8 3.6-8 8v144c0 4.4 3.6 8 8 8zm96 0h16c4.4 0 8-3.6 8-8V104c0-4.4-3.6-8-8-8h-16c-4.4 0-8 3.6-8 8v144c0 4.4 3.6 8 8 8zm96 0h16c4.4 0 8-3.6 8-8V104c0-4.4-3.6-8-8-8h-16c-4.4 0-8 3.6-8 8v144c0 4.4 3.6 8 8 8z"></path>
    </symbol>

    <symbol id="icon-recycle" viewBox="0 0 512 512">
      <path d="M201.728 62.049l-43.385 69.459c-3.511 5.622-10.916 7.332-16.537 3.819l-6.781-4.237c-5.619-3.511-7.329-10.912-3.819-16.533l43.387-69.48c37.575-60.12 125.263-60.084 162.816 0l46.217 74.015 12.037-52.14c1.491-6.458 7.934-10.484 14.392-8.993l7.794 1.799c6.458 1.491 10.484 7.934 8.993 14.392l-21.633 93.702c-1.491 6.458-7.934 10.484-14.392 8.993l-93.702-21.633c-6.458-1.491-10.484-7.934-8.993-14.392l1.799-7.794c1.491-6.458 7.934-10.484 14.392-8.993l52.202 12.052-46.251-74.047c-25.002-40.006-83.467-40.099-108.536.011zm295.56 239.071l-52.939-84.78c-3.511-5.623-10.916-7.334-16.538-3.821l-6.767 4.228c-5.62 3.512-7.329 10.913-3.819 16.534l52.966 84.798c26.605 42.568-4.054 97.92-54.272 97.92H310.627l37.858-37.858c4.686-4.686 4.686-12.284 0-16.97l-5.656-5.656c-4.686-4.686-12.284-4.686-16.97 0l-68 68c-4.686 4.686-4.686 12.284 0 16.971l68 68c4.686 4.686 12.284 4.686 16.97 0l5.656-5.657c4.686-4.686 4.686-12.284 0-16.971L310.627 448H415.88c75.274 0 121.335-82.997 81.408-146.88zM41.813 318.069l55.803-89.339 12.044 52.166c1.491 6.458 7.934 10.484 14.392 8.993l7.794-1.799c6.458-1.491 10.484-7.934 8.993-14.392l-21.633-93.702c-1.491-6.458-7.934-10.484-14.392-8.993l-93.702 21.633c-6.458 1.491-10.484 7.934-8.993 14.392l1.799 7.794c1.491 6.458 7.934 10.484 14.392 8.993l52.193-12.05-55.796 89.355C-25.188 364.952 20.781 448 96.115 448H196c6.627 0 12-5.373 12-12v-8c0-6.627-5.373-12-12-12H96.078c-50.199 0-80.887-55.335-54.265-97.931z"></path>
    </symbol>

    <symbol id="icon-star" viewBox="0 0 576 512">
      <path d="M259.3 17.8L194 150.2 47.9 171.5c-26.2 3.8-36.7 36.1-17.7 54.6l105.7 103-25 145.5c-4.5 26.3 23.2 46 46.4 33.7L288 439.6l130.7 68.7c23.2 12.2 50.9-7.4 46.4-33.7l-25-145.5 105.7-103c19-18.5 8.5-50.8-17.7-54.6L382 150.2 316.7 17.8c-11.7-23.6-45.6-23.9-57.4 0z"></path>
    </symbol>

    <symbol viewBox="0 0 448 512" id="icon-angles-down">
      <path opacity=".4" d="M201.4 278.6c12.5 12.5 32.8 12.5 45.3 0l160-160c12.5-12.5 12.5-32.8 0-45.3s-32.8-12.5-45.3 0L224 210.7 86.6 73.4c-12.5-12.5-32.8-12.5-45.3 0s-12.5 32.8 0 45.3l160 160z"></path>
      <path d="M201.4 470.6c12.5 12.5 32.8 12.5 45.3 0l160-160c12.5-12.5 12.5-32.8 0-45.3s-32.8-12.5-45.3 0L224 402.7 86.6 265.4c-12.5-12.5-32.8-12.5-45.3 0s-12.5 32.8 0 45.3l160 160z"></path>
    </symbol>

    <symbol viewBox="0 0 512 512" id="icon-email">
      <path d="M64 112c-8.8 0-16 7.2-16 16v22.1L220.5 291.7c20.7 17 50.4 17 71.1 0L464 150.1V128c0-8.8-7.2-16-16-16H64zM48 212.2V384c0 8.8 7.2 16 16 16H448c8.8 0 16-7.2 16-16V212.2L322 328.8c-38.4 31.5-93.7 31.5-132 0L48 212.2zM0 128C0 92.7 28.7 64 64 64H448c35.3 0 64 28.7 64 64V384c0 35.3-28.7 64-64 64H64c-35.3 0-64-28.7-64-64V128z"></path>
    </symbol>

    <symbol viewBox="0 0 13 14" id="icon-phone">
        <path d="M9.5418 7.48746C9.12539 7.30972 8.64297 7.42652 8.35606 7.77691L7.51309 8.80777C6.34512 8.12984 5.37012 7.15484 4.69219 5.98687L5.72051 5.14644C6.0709 4.85953 6.19023 4.37711 6.00996 3.9607L4.79121 1.11695C4.60078 0.670076 4.1209 0.421248 3.64609 0.52281L0.802344 1.13219C0.335156 1.23121 0 1.64508 0 2.12496C0 7.99527 4.44844 12.8296 10.1588 13.4365C10.4076 13.4619 10.6564 13.4822 10.9104 13.4923H10.9129C11.0678 13.4974 11.2201 13.5025 11.375 13.5025C11.8549 13.5025 12.2688 13.1673 12.3678 12.7002L12.9771 9.8564C13.0787 9.3816 12.8299 8.90172 12.383 8.71129L9.53926 7.49254L9.5418 7.48746ZM11.21 12.2812C5.7332 12.1923 1.30762 7.76676 1.22129 2.29L3.74004 1.74918L4.83184 4.2984L3.92031 5.04488C3.4582 5.4232 3.33887 6.08082 3.63848 6.59879C4.42305 7.95211 5.55039 9.07945 6.90371 9.86402C7.42168 10.1636 8.0793 10.0443 8.45762 9.58218L9.2041 8.67066L11.7533 9.76246L11.21 12.2812Z" fill="current"></path>
        <path opacity="0.4" d="M7 1.0625C7 0.750781 7.25078 0.5 7.5625 0.5C10.5648 0.5 13 2.93516 13 5.9375C13 6.24922 12.7492 6.5 12.4375 6.5C12.1258 6.5 11.875 6.24922 11.875 5.9375C11.875 3.55625 9.94375 1.625 7.5625 1.625C7.25078 1.625 7 1.37422 7 1.0625ZM7 5.75C7 5.55109 7.07902 5.36032 7.21967 5.21967C7.36032 5.07902 7.55109 5 7.75 5C7.94891 5 8.13968 5.07902 8.28033 5.21967C8.42098 5.36032 8.5 5.55109 8.5 5.75C8.5 5.94891 8.42098 6.13968 8.28033 6.28033C8.13968 6.42098 7.94891 6.5 7.75 6.5C7.55109 6.5 7.36032 6.42098 7.21967 6.28033C7.07902 6.13968 7 5.94891 7 5.75ZM7.5625 2.75C9.32266 2.75 10.75 4.17734 10.75 5.9375C10.75 6.24922 10.4992 6.5 10.1875 6.5C9.87578 6.5 9.625 6.24922 9.625 5.9375C9.625 4.79844 8.70156 3.875 7.5625 3.875C7.25078 3.875 7 3.62422 7 3.3125C7 3.00078 7.25078 2.75 7.5625 2.75Z" fill="current"></path>
    </symbol>

    <symbol viewBox="0 0 512 512" id="icon-angles-right">
      <path opacity=".4" d="M278.6 233.4c12.5 12.5 12.5 32.8 0 45.3l-160 160c-12.5 12.5-32.8 12.5-45.3 0s-12.5-32.8 0-45.3L210.7 256 73.4 118.6c-12.5-12.5-12.5-32.8 0-45.3s32.8-12.5 45.3 0l160 160z"></path>
      <path d="M470.6 233.4c12.5 12.5 12.5 32.8 0 45.3l-160 160c-12.5 12.5-32.8 12.5-45.3 0s-12.5-32.8 0-45.3L402.7 256 265.4 118.6c-12.5-12.5-12.5-32.8 0-45.3s32.8-12.5 45.3 0l160 160z"></path>
    </symbol>

    <symbol viewBox="0 0 576 512" id="icon-star">
      <path d="M316.9 18C311.6 7 300.4 0 288.1 0s-23.4 7-28.8 18L195 150.3 51.4 171.5c-12 1.8-22 10.2-25.7 21.7s-.7 24.2 7.9 32.7L137.8 329 113.2 474.7c-2 12 3 24.2 12.9 31.3s23 8 33.8 2.3l128.3-68.5 128.3 68.5c10.8 5.7 23.9 4.9 33.8-2.3s14.9-19.3 12.9-31.3L438.5 329 542.7 225.9c8.6-8.5 11.7-21.2 7.9-32.7s-13.7-19.9-25.7-21.7L381.2 150.3 316.9 18z"></path>
    </symbol>

    <symbol viewBox="0 0 448 512" id="icon-x-twitter">
      <path d="M64 32C28.7 32 0 60.7 0 96V416c0 35.3 28.7 64 64 64H384c35.3 0 64-28.7 64-64V96c0-35.3-28.7-64-64-64H64zm297.1 84L257.3 234.6 379.4 396H283.8L209 298.1 123.3 396H75.8l111-126.9L69.7 116h98l67.7 89.5L313.6 116h47.5zM323.3 367.6L153.4 142.9H125.1L296.9 367.6h26.3z"></path>
    </symbol>
    
    <symbol viewBox="0 0 448 512" id="icon-angles-up">
      <path opacity=".4" d="M201.4 233.4c12.5-12.5 32.8-12.5 45.3 0l160 160c12.5 12.5 12.5 32.8 0 45.3s-32.8 12.5-45.3 0L224 301.3 86.6 438.6c-12.5 12.5-32.8 12.5-45.3 0s-12.5-32.8 0-45.3l160-160z"></path>
      <path d="M201.4 41.4c12.5-12.5 32.8-12.5 45.3 0l160 160c12.5 12.5 12.5 32.8 0 45.3s-32.8 12.5-45.3 0L224 109.3 86.6 246.6c-12.5 12.5-32.8 12.5-45.3 0s-12.5-32.8 0-45.3l160-160z"></path>
    </symbol>
    
    <symbol viewBox="0 0 512 512" id="icon-angles-left">
      <path opacity=".4" d="M233.4 233.4c-12.5 12.5-12.5 32.8 0 45.3l160 160c12.5 12.5 32.8 12.5 45.3 0s12.5-32.8 0-45.3L301.3 256 438.6 118.6c12.5-12.5 12.5-32.8 0-45.3s-32.8-12.5-45.3 0l-160 160z"></path>
      <path d="M41.4 233.4c-12.5 12.5-12.5 32.8 0 45.3l160 160c12.5 12.5 32.8 12.5 45.3 0s12.5-32.8 0-45.3L109.3 256 246.6 118.6c12.5-12.5 12.5-32.8 0-45.3s-32.8-12.5-45.3 0l-160 160z"></path>
    </symbol>
  
</svg>
